<?xml version="1.0" encoding="iso-8859-1"?>
<!-- Generator: Adobe Illustrator 26.5.0, SVG Export Plug-In . SVG Version: 6.00 Build 0)  -->
<svg version="1.1" id="Layer_1" xmlns="http://www.w3.org/2000/svg" xmlns:xlink="http://www.w3.org/1999/xlink" x="0px" y="0px"
	 viewBox="0 0 2000 2000" style="enable-background:new 0 0 2000 2000;" xml:space="preserve">
<g>
	<g>
		<path style="fill:#414042;" d="M827.183,984.784c-7.87-3.74-6.867-14.223,0.535-17.533c12.322-5.73,28.811-2.911,40.452,4.967
			v-18.393c-9.32-4.851-18.668-7.276-28.037-7.276c-19.662,0.028-37.504,9.252-37.205,30.559
			c-0.169,10.395,4.981,18.92,13.752,23.07c7.637,3.578,17.535,6.808,25.515,9.129c7.109,2.142,13.81,6.461,13.752,14.324
			c0,7.997-7.181,11.995-21.544,11.995c-11.104,0-21.136-3.336-30.099-10.009v18.984c15.833,9.64,44.069,13.345,59.97,0.791
			c6.977-5.305,10.466-12.151,10.466-20.538c0-7.945-1.822-14.425-5.462-19.442C859.799,991.211,840.377,992.004,827.183,984.784z"
			/>
		<rect x="895.672" y="946.548" style="fill:#414042;" width="18.794" height="106.801"/>
		<path style="fill:#414042;" d="M942.523,976.801v15.431c6.496-2.646,14.143-3.973,22.941-3.973
			c11.023,0,16.533,4.967,16.533,14.898c-19.619-3.1-46.905-0.8-47.518,23.453c0.472,18.028,14.207,27.045,33.65,26.738
			c11.141,0,19.396-2.584,24.762-7.754c5.367-5.168,8.052-11.344,8.052-18.525c0,0,0-21.086,0-21.086
			C1001.287,971.409,968.728,968.06,942.523,976.801z M982.152,1024.93c0.031,7.949-4.823,11.905-14.173,11.841
			c-9.804,0-14.705-4.176-14.705-12.529c-0.287-11.286,17.627-11.01,28.878-9.168V1024.93z"/>
		<path style="fill:#414042;" d="M1017.063,1013.088c-0.531,36.895,28.563,47.674,59.436,35.677v-15.431
			c-10.663,4.355-27.252,6.487-35.41-1.124c-3.489-3.347-5.232-9.72-5.232-19.122c0-9.501,1.743-15.901,5.232-19.197
			c7.944-7.471,25.304-5.392,35.41-1.2V977.26C1045.624,965.604,1016.49,976.084,1017.063,1013.088z"/>
		<polygon style="fill:#414042;" points="1163.743,975.273 1138.839,975.273 1112.558,1003.922 1112.558,946.548 1093.765,946.548 
			1093.765,1053.349 1112.558,1053.349 1112.558,1027.833 1117.753,1022.561 1143.574,1053.349 1167.333,1053.349 
			1129.747,1010.034 		"/>
		<path style="fill:#009AC4;" d="M1200.794,974.051v-27.503h-18.792v80.484c0.406,17.456,14.032,26.67,32.849,26.316
			c9.121,0.31,19.287-3.411,25.708-10.561c2.486-2.756,4.64-6.8,6.466-12.132c1.826-5.333,2.739-11.494,2.738-18.485
			C1250.076,980.904,1229.621,968.511,1200.794,974.051z M1230.97,1011.176c0,9.246-1.196,15.901-3.59,19.963
			c-2.394,4.06-6.57,6.091-12.529,6.091c-9.372,0-14.057-2.81-14.057-8.43v-40.001
			C1219.352,984.951,1231.366,988.296,1230.97,1011.176z"/>
		<path style="fill:#009AC4;" d="M1301.024,972.676c-25.382-0.231-34.735,17.604-34.911,41.253
			c0.02,14.394,3.875,28.452,16.549,35.066c14.209,7.762,35.572,4.426,48.693-2.675v-15.125
			c-11.594,5.362-29.365,9.249-40.376,2.597c-3.54-2.292-5.563-6.825-6.073-13.599h50.648
			C1338.159,996.419,1329.071,972.356,1301.024,972.676z M1284.905,1007.206c0.987-11.493,4.465-18.824,15.662-19.099
			c10.284-0.087,14.858,9.699,15.813,19.099H1284.905z"/>
		<path style="fill:#009AC4;" d="M1358.113,976.801v15.431c6.497-2.646,14.143-3.973,22.943-3.973
			c11.022,0,16.533,4.967,16.533,14.898c-19.619-3.1-46.908-0.8-47.518,23.453c0.471,18.029,14.207,27.045,33.65,26.738
			c11.141,0,19.396-2.584,24.762-7.754c5.367-5.168,8.051-11.344,8.051-18.525c0,0,0-21.086,0-21.086
			C1416.878,971.409,1384.318,968.06,1358.113,976.801z M1397.742,1024.93c0.031,7.95-4.823,11.905-14.173,11.841
			c-9.803,0-14.704-4.176-14.704-12.529c-0.288-11.286,17.626-11.01,28.877-9.168V1024.93z"/>
		<path style="fill:#009AC4;" d="M1470.32,974.308c-18.88,1.507-33.463,17.231-33.463,36.172v42.869h18.792v-42.746
			c0-11.092,8.843-20.263,19.934-20.429c0.078-0.001,0.157-0.002,0.235-0.003v-16.119
			C1474.076,974.067,1472.231,974.156,1470.32,974.308z"/>
	</g>
	<g>
		<path style="fill:#009AC4;" d="M664.181,1009.66c1.932,1.538,4.774,1.44,6.435-0.394c3.113-3.433,4.651-9.536,5.304-12.896
			c0.234-1.23-0.714-2.375-1.969-2.375h-17.51c-1.403,0-2.399,1.415-1.883,2.719C657.168,1003.261,661.388,1007.445,664.181,1009.66
			z"/>
		<path style="fill:#009AC4;" d="M648.266,874.117c-37.318,0.561-70.709,17.345-93.419,43.629
			c6.813,3.517,14.214,7.092,21.998,10.55c15.951,7.078,33.932,8.078,50.559,2.796c3.944-1.251,7.99-2.649,11.889-4.179
			c10.536-4.179,21.263,5.341,18.349,16.274c-1.56,5.856-3.84,11.036-7.181,13.787c0,0,17.672,8.167,29.856,18.776
			c4.694,4.091,7.298,9.991,7.607,16.201c0.368,7.195,3.561,18.32,18.069,26.545l8.564,5.385l10.109,6.357l-25.368,29.915h-43.82
			c0,0-0.178,0.001-0.488,0.013c-0.223,0.014-0.491,0.034-0.865,0.073c-3.622,0.376-7.155,1.467-10.302,3.299
			c-16.684,9.714-26.18,30.261-29.995,57.243c0,0,5.52,2.658,24.963,4.491c12.256,1.156,24.656,0.777,36.719-1.682
			c58.409-11.91,102.117-64.221,100.667-126.48C774.575,928.342,717.045,873.084,648.266,874.117z"/>
		<path style="fill:#007E9B;" d="M642.771,1064.17c3.53-2.192,7.513-3.583,11.651-3.962c0.697-0.064,1.099-0.071,1.057-0.057
			c0,0,43.82,0,43.82,0l25.368-29.915l-10.109-6.357h-18.702c0,0-0.265,5.459,2.369,13.096c2.943,8.534-5.209,16.716-13.773,13.89
			c-8.328-2.737-17.908-7.475-27.237-15.627c0,0-4.797,3.679-6.077,12.022c0,0-19.644-2.693-36.05,8.343c0,0-1.412-8.108,0-15.862
			c0,0-24.308-2.237-51.309,14.862c0,0-1.266-43.229-38.648-69.716c-0.042,0.348-0.093,0.693-0.132,1.042
			c-0.091,0.764-0.165,1.53-0.241,2.296c-0.165,1.761-0.312,3.527-0.404,5.309c-0.003,0.049-0.006,0.098-0.009,0.147
			c-0.107,2.132-0.163,4.277-0.163,6.435c0,4.084,0.211,8.117,0.591,12.102c0.114,1.152,0.253,2.302,0.398,3.45
			c0.075,0.608,0.148,1.217,0.232,1.823c0.215,1.526,0.452,3.049,0.721,4.565c0.027,0.153,0.055,0.306,0.082,0.459
			c1.431,7.896,3.611,15.612,6.43,22.98c0.407,1.053,0.808,2.109,1.242,3.148c0.194,0.467,0.4,0.927,0.599,1.391
			c0.643,1.49,1.304,2.97,2.002,4.429c0.092,0.192,0.185,0.384,0.277,0.575c0.804,1.657,1.641,3.294,2.514,4.909
			c0.071,0.132,0.141,0.265,0.213,0.396c0.743,1.363,1.527,2.7,2.318,4.032c0.326,0.542,0.639,1.095,0.973,1.63
			c15.999,26.029,41.19,45.786,71.054,54.775C617.562,1094.371,626.74,1074.127,642.771,1064.17z"/>
	</g>
</g>
</svg>
